<?xml version="1.0" encoding="utf-8"?>
<!-- Generator: Adobe Illustrator 22.1.0, SVG Export Plug-In . SVG Version: 6.00 Build 0)  -->
<svg version="1.1" id="Capa_1" xmlns="http://www.w3.org/2000/svg" xmlns:xlink="http://www.w3.org/1999/xlink" x="0px" y="0px"
	 viewBox="0 0 305.3 127.3" style="enable-background:new 0 0 305.3 127.3;" xml:space="preserve">
<title>candelaria_di_pietro-logo</title>
<g>
	<g>
		<g>
			<path style="fill:#F2E5DB;" d="M300.6,91.1c0,1.4-1.1,2.5-2.5,2.5H48.4c-1.4,0-2.5-1.1-2.5-2.5V38c0-1.4,1.1-2.5,2.5-2.5h249.7
				c1.4,0,2.5,1.1,2.5,2.5V91.1z"/>
		</g>
		<g>
			<g>
				<g>
					<path style="fill:#38424D;" d="M136.2,59.8c0-0.2-0.1-0.5-0.3-0.7c-0.1-0.2-0.3-0.4-0.4-0.5c-0.5,0.5-1.1,1-1.8,1.3
						c-0.7,0.3-1.3,0.5-2,0.5c-1.7,0-3.2-0.6-4.5-1.9c-1.2-1.3-1.8-2.8-1.8-4.6c0-1.8,0.6-3.3,1.9-4.6c1.2-1.3,2.7-1.9,4.5-1.9
						c0.7,0,1.4,0.2,2,0.5c0.7,0.3,1.2,0.7,1.8,1.3c0.1-0.1,0.3-0.3,0.4-0.5c0.1-0.2,0.2-0.4,0.3-0.7h0.4v4.5h-0.4
						c-0.3-1.3-0.8-2.4-1.6-3.2c-0.8-0.8-1.7-1.1-2.8-1.1c-1.5,0-2.6,0.6-3.4,1.7c-0.7,1.2-1.1,2.5-1.1,4c0,1.5,0.4,2.8,1.1,4
						c0.7,1.2,1.9,1.7,3.4,1.7c1.1,0,2.1-0.4,2.9-1.1c0.8-0.8,1.3-1.8,1.6-3.1h0.4v4.5H136.2z"/>
					<path style="fill:#38424D;" d="M144.7,58c-0.1,0.3-0.2,0.5-0.2,0.7c0,0.3,0.1,0.5,0.4,0.6c0.3,0.1,0.7,0.2,1.4,0.2V60h-4.8
						v-0.4c0.8,0,1.4-0.1,1.6-0.3s0.5-0.7,0.9-1.5l4.5-10.5h0.3l4.5,10.5c0.3,0.6,0.5,1.1,0.7,1.4c0.2,0.3,0.8,0.4,1.7,0.4V60h-5.7
						v-0.4c1.2,0,1.8-0.3,1.8-0.8c0-0.2-0.1-0.5-0.2-0.7l-1-2.3h-5L144.7,58z M148.2,50l-2.1,5h4.3L148.2,50z"/>
					<path style="fill:#38424D;" d="M170.7,50.5c0-1-0.1-1.7-0.3-2c-0.2-0.3-0.8-0.4-1.6-0.4v-0.4h4.7v0.4c-0.9,0-1.4,0.1-1.6,0.4
						c-0.2,0.3-0.4,0.9-0.4,2v9.9H171L162.6,50v7.2c0,1,0.1,1.7,0.3,2c0.2,0.3,0.8,0.4,1.6,0.4V60h-4.7v-0.4c0.8,0,1.4-0.1,1.6-0.4
						c0.2-0.3,0.3-0.9,0.3-2v-6.7c0-1-0.1-1.7-0.3-2c-0.2-0.3-0.8-0.4-1.6-0.4v-0.4l2.9,0l7.9,9.8V50.5z"/>
					<path style="fill:#38424D;" d="M178.9,59.6c0.8,0,1.4-0.1,1.6-0.4c0.2-0.3,0.3-0.9,0.3-2v-6.7c0-1-0.1-1.7-0.3-2
						c-0.2-0.3-0.8-0.4-1.6-0.4v-0.4h5.6c2.3,0,4,0.6,5.1,1.7c1.2,1.2,1.7,2.6,1.7,4.4c0,1.8-0.6,3.3-1.7,4.5
						c-1.1,1.1-2.9,1.7-5.2,1.7h-5.6V59.6z M182.5,56.9c0,1,0.1,1.7,0.3,2c0.2,0.3,0.7,0.4,1.6,0.4h0.1c1.8,0,3.1-0.5,3.8-1.6
						c0.7-1.1,1.1-2.3,1.1-3.8c0-1.5-0.4-2.8-1.1-3.8c-0.7-1.1-2-1.6-3.8-1.6h-2V56.9z"/>
					<path style="fill:#38424D;" d="M197.7,59.6c0.8,0,1.4-0.1,1.6-0.4c0.2-0.3,0.3-0.9,0.3-2v-6.7c0-1-0.1-1.7-0.3-2
						c-0.2-0.3-0.8-0.4-1.6-0.4v-0.4h9.4l0.2,2.7h-0.4l-0.1-0.4c-0.2-0.6-0.4-1-0.6-1.2c-0.3-0.2-0.8-0.3-1.7-0.3h-3v4.7h1
						c1,0,1.7-0.1,2-0.3c0.3-0.2,0.4-0.8,0.4-1.6h0.4v4.7h-0.4c0-0.9-0.1-1.4-0.4-1.6c-0.3-0.2-0.9-0.3-2-0.3h-1v3
						c0,1,0.1,1.7,0.3,2c0.2,0.3,0.8,0.4,1.6,0.4h1.8c0.9,0,1.5-0.1,1.7-0.3c0.3-0.2,0.5-0.6,0.6-1.2l0.1-0.4h0.4l-0.2,2.7h-10.1
						V59.6z"/>
					<path style="fill:#38424D;" d="M213.9,59.6c0.8,0,1.4-0.1,1.6-0.4c0.2-0.3,0.3-0.9,0.3-2v-6.7c0-1-0.1-1.7-0.3-2
						c-0.2-0.3-0.8-0.4-1.6-0.4v-0.4h5.6v0.4c-0.9,0-1.4,0.1-1.6,0.4c-0.2,0.3-0.3,0.9-0.3,2v6.4c0,1,0.1,1.7,0.3,2
						c0.2,0.3,0.8,0.4,1.6,0.4h2.5c0.9,0,1.5-0.1,1.7-0.3c0.3-0.2,0.5-0.6,0.6-1.2l0.1-0.4h0.4l-0.2,2.7h-10.8V59.6z"/>
					<path style="fill:#38424D;" d="M231.4,58c-0.1,0.3-0.2,0.5-0.2,0.7c0,0.3,0.1,0.5,0.4,0.6c0.3,0.1,0.7,0.2,1.4,0.2V60h-4.8
						v-0.4c0.8,0,1.4-0.1,1.6-0.3s0.5-0.7,0.9-1.5l4.5-10.5h0.3l4.5,10.5c0.3,0.6,0.5,1.1,0.7,1.4c0.2,0.3,0.8,0.4,1.7,0.4V60h-5.7
						v-0.4c1.2,0,1.8-0.3,1.8-0.8c0-0.2-0.1-0.5-0.2-0.7l-1-2.3h-5L231.4,58z M234.9,50l-2.1,5h4.3L234.9,50z"/>
					<path style="fill:#38424D;" d="M254.8,57c0.6,0.8,1.3,1.4,1.9,1.8c0.7,0.5,1.3,0.7,1.9,0.8V60h-3.4l-4.1-5.4h-1v2.6
						c0,1,0.1,1.7,0.3,2c0.2,0.3,0.8,0.4,1.6,0.4V60h-5.6v-0.4c0.8,0,1.4-0.1,1.6-0.4c0.2-0.3,0.3-0.9,0.3-2v-6.7c0-1-0.1-1.7-0.3-2
						c-0.2-0.3-0.8-0.4-1.6-0.4v-0.4h5.4c1.4,0,2.5,0.3,3.3,1c0.8,0.7,1.2,1.5,1.2,2.5c0,0.9-0.3,1.7-1,2.3c-0.6,0.6-1.5,1-2.7,1.1
						L254.8,57z M254.7,51.1c0-0.8-0.2-1.4-0.7-2c-0.4-0.5-1.1-0.8-2-0.8h-1.8v5.4h1.8c0.9,0,1.5-0.3,2-0.8
						C254.4,52.6,254.7,52,254.7,51.1z"/>
					<path style="fill:#38424D;" d="M263.5,60v-0.4c0.8,0,1.4-0.1,1.6-0.4c0.2-0.3,0.3-0.9,0.3-2v-6.7c0-1-0.1-1.7-0.3-2
						c-0.2-0.3-0.8-0.4-1.6-0.4v-0.4h5.6v0.4c-0.9,0-1.4,0.1-1.6,0.4c-0.2,0.3-0.3,0.9-0.3,2v6.7c0,1,0.1,1.7,0.3,2
						c0.2,0.3,0.8,0.4,1.6,0.4V60H263.5z"/>
					<path style="fill:#38424D;" d="M276.4,58c-0.1,0.3-0.2,0.5-0.2,0.7c0,0.3,0.1,0.5,0.4,0.6c0.3,0.1,0.7,0.2,1.4,0.2V60h-4.8
						v-0.4c0.8,0,1.4-0.1,1.6-0.3c0.2-0.2,0.5-0.7,0.9-1.5l4.5-10.5h0.3l4.5,10.5c0.3,0.6,0.5,1.1,0.7,1.4c0.2,0.3,0.8,0.4,1.7,0.4
						V60h-5.7v-0.4c1.2,0,1.8-0.3,1.8-0.8c0-0.2-0.1-0.5-0.2-0.7l-1-2.3h-5L276.4,58z M279.8,50l-2.1,5h4.3L279.8,50z"/>
				</g>
				<g>
					<path style="fill:#38424D;" d="M157.3,80.5c0.8,0,1.4-0.1,1.6-0.4c0.2-0.3,0.3-0.9,0.3-2v-6.7c0-1-0.1-1.7-0.3-2
						c-0.2-0.3-0.8-0.4-1.6-0.4v-0.4h5.6c2.3,0,4,0.6,5.1,1.7c1.2,1.2,1.7,2.6,1.7,4.4c0,1.8-0.6,3.3-1.7,4.5
						c-1.1,1.1-2.9,1.7-5.2,1.7h-5.6V80.5z M160.9,77.8c0,1,0.1,1.7,0.3,2c0.2,0.3,0.7,0.4,1.6,0.4h0.1c1.8,0,3.1-0.5,3.8-1.6
						c0.7-1.1,1.1-2.3,1.1-3.8c0-1.5-0.4-2.8-1.1-3.8c-0.7-1.1-2-1.6-3.8-1.6h-2V77.8z"/>
					<path style="fill:#38424D;" d="M176.1,80.9v-0.4c0.8,0,1.4-0.1,1.6-0.4c0.2-0.3,0.3-0.9,0.3-2v-6.7c0-1-0.1-1.7-0.3-2
						c-0.2-0.3-0.8-0.4-1.6-0.4v-0.4h5.6V69c-0.9,0-1.4,0.1-1.6,0.4c-0.2,0.3-0.3,0.9-0.3,2v6.7c0,1,0.1,1.7,0.3,2
						c0.2,0.3,0.8,0.4,1.6,0.4v0.4H176.1z"/>
					<path style="fill:#38424D;" d="M206.1,72c0,1-0.4,1.8-1.2,2.5c-0.8,0.7-1.9,1-3.3,1h-1.8v2.6c0,1,0.1,1.7,0.3,2
						c0.2,0.3,0.8,0.4,1.6,0.4v0.4h-5.6v-0.4c0.8,0,1.4-0.1,1.6-0.4c0.2-0.3,0.3-0.9,0.3-2v-6.7c0-1-0.1-1.7-0.3-2
						c-0.2-0.3-0.8-0.4-1.6-0.4v-0.4h5.4c1.4,0,2.5,0.3,3.3,1C205.7,70.2,206.1,71,206.1,72z M204.3,72c0-0.8-0.2-1.4-0.7-2
						c-0.4-0.5-1.1-0.8-2-0.8h-1.8v5.4h1.8c0.9,0,1.5-0.3,2-0.8C204.1,73.5,204.3,72.8,204.3,72z"/>
					<path style="fill:#38424D;" d="M211.5,80.9v-0.4c0.8,0,1.4-0.1,1.6-0.4c0.2-0.3,0.3-0.9,0.3-2v-6.7c0-1-0.1-1.7-0.3-2
						c-0.2-0.3-0.8-0.4-1.6-0.4v-0.4h5.6V69c-0.9,0-1.4,0.1-1.6,0.4c-0.2,0.3-0.3,0.9-0.3,2v6.7c0,1,0.1,1.7,0.3,2
						c0.2,0.3,0.8,0.4,1.6,0.4v0.4H211.5z"/>
					<path style="fill:#38424D;" d="M222.7,80.5c0.8,0,1.4-0.1,1.6-0.4c0.2-0.3,0.3-0.9,0.3-2v-6.7c0-1-0.1-1.7-0.3-2
						c-0.2-0.3-0.8-0.4-1.6-0.4v-0.4h9.4l0.2,2.7h-0.4l-0.1-0.4c-0.2-0.6-0.4-1-0.6-1.2c-0.3-0.2-0.8-0.3-1.7-0.3h-3V74h1
						c1,0,1.7-0.1,2-0.3c0.3-0.2,0.4-0.8,0.4-1.6h0.4v4.7h-0.4c0-0.9-0.1-1.4-0.4-1.6c-0.3-0.2-0.9-0.3-2-0.3h-1v3
						c0,1,0.1,1.7,0.3,2c0.2,0.3,0.8,0.4,1.6,0.4h1.8c0.9,0,1.5-0.1,1.7-0.3c0.3-0.2,0.5-0.6,0.6-1.2l0.1-0.4h0.4l-0.2,2.7h-10.1
						V80.5z"/>
					<path style="fill:#38424D;" d="M251.1,71.3h-0.4l-0.1-0.4c-0.2-0.6-0.4-1-0.6-1.2c-0.3-0.2-0.8-0.3-1.7-0.3h-2.7v8.7
						c0,1,0.1,1.7,0.3,2c0.2,0.3,0.8,0.4,1.6,0.4v0.4h-5.6v-0.4c0.9,0,1.4-0.1,1.6-0.4c0.2-0.3,0.3-0.9,0.3-2v-8.7h-2.7
						c-0.9,0-1.5,0.1-1.7,0.3c-0.3,0.2-0.5,0.6-0.7,1.2l-0.1,0.4h-0.4l0.2-2.8h12.5L251.1,71.3z"/>
					<path style="fill:#38424D;" d="M264.4,77.9c0.6,0.8,1.3,1.4,1.9,1.8c0.7,0.5,1.3,0.7,1.9,0.8v0.4h-3.4l-4.1-5.4h-1v2.6
						c0,1,0.1,1.7,0.3,2c0.2,0.3,0.8,0.4,1.6,0.4v0.4h-5.6v-0.4c0.8,0,1.4-0.1,1.6-0.4c0.2-0.3,0.3-0.9,0.3-2v-6.7
						c0-1-0.1-1.7-0.3-2c-0.2-0.3-0.8-0.4-1.6-0.4v-0.4h5.4c1.4,0,2.5,0.3,3.3,1c0.8,0.7,1.2,1.5,1.2,2.5c0,0.9-0.3,1.7-1,2.3
						c-0.6,0.6-1.5,1-2.7,1.1L264.4,77.9z M264.2,72c0-0.8-0.2-1.4-0.7-2c-0.4-0.5-1.1-0.8-2-0.8h-1.8v5.4h1.8c0.9,0,1.5-0.3,2-0.8
						C264,73.5,264.2,72.8,264.2,72z"/>
					<path style="fill:#38424D;" d="M280.6,81.3c-1.9,0-3.5-0.6-4.8-1.9c-1.3-1.3-2-2.8-2-4.6c0-1.8,0.7-3.3,2-4.6
						c1.3-1.3,3-1.9,4.8-1.9c1.9,0,3.5,0.6,4.9,1.9c1.3,1.3,2,2.8,2,4.6c0,1.8-0.7,3.3-2,4.6C284.1,80.6,282.5,81.3,280.6,81.3z
						 M275.7,74.7c0,1.5,0.4,2.8,1.2,4c0.8,1.2,2,1.7,3.7,1.7c1.6,0,2.9-0.6,3.7-1.7c0.8-1.2,1.2-2.5,1.2-4c0-1.5-0.4-2.8-1.2-4
						c-0.8-1.2-2-1.7-3.7-1.7c-1.6,0-2.8,0.6-3.7,1.7C276.1,71.9,275.7,73.3,275.7,74.7z"/>
				</g>
			</g>
		</g>
	</g>
	<g>
		<path style="fill:#F2E5DB;" d="M173.5,115.4c-0.1,0.3-0.2,0.6-0.3,0.7c-0.1,0.2-0.1,0.4-0.1,0.5c0,0.3,0.1,0.4,0.4,0.5
			c0.3,0.1,0.7,0.2,1.4,0.2v0.5h-4.8v-0.5c0.8,0,1.3-0.1,1.6-0.4c0.3-0.2,0.6-0.9,1.1-1.9l3.8-8.8h0.4l3.8,8.8
			c0.4,1,0.8,1.6,1.1,1.8c0.3,0.3,0.8,0.4,1.4,0.4v0.5h-5.7v-0.5c0.6,0,1.1-0.1,1.3-0.2c0.3-0.1,0.4-0.3,0.4-0.6
			c0-0.2-0.1-0.6-0.3-1.2l-0.5-1.2H174L173.5,115.4z M176.1,109.3l-1.7,3.9l3.4,0L176.1,109.3z"/>
		<path style="fill:#F2E5DB;" d="M189.5,117.3c0.9,0,1.4-0.2,1.7-0.5c0.2-0.4,0.4-1.2,0.4-2.4v-4.1c0-1.3-0.1-2.1-0.4-2.4
			c-0.2-0.3-0.8-0.5-1.7-0.5v-0.5h2.9h2.5c1.2,0,2.1,0.3,2.7,0.8c0.6,0.5,1,1.2,1,2c0,0.5-0.1,0.9-0.3,1.2c-0.2,0.4-0.5,0.7-0.8,1
			c1.3,0.6,2,1.6,2,2.9c0,0.9-0.4,1.7-1.1,2.3c-0.7,0.6-1.7,0.9-3,0.9h-3h-2.9V117.3z M194.8,107.7h-1.5v3.8h1.5
			c0.6,0,1-0.2,1.3-0.5c0.3-0.4,0.5-0.8,0.5-1.3c0-0.5-0.2-1-0.5-1.4C195.8,107.9,195.3,107.7,194.8,107.7z M195.3,112.5h-2v2.4
			c0,0.8,0.1,1.4,0.3,1.6c0.2,0.2,0.6,0.3,1.3,0.3h0.5c0.7,0,1.2-0.2,1.6-0.6c0.4-0.4,0.5-0.9,0.5-1.6c0-0.6-0.2-1.2-0.5-1.6
			C196.6,112.7,196,112.5,195.3,112.5z"/>
		<path style="fill:#F2E5DB;" d="M213.7,118.3c-1.7,0-3.2-0.6-4.4-1.8c-1.2-1.2-1.8-2.6-1.8-4.2c0-1.6,0.6-3,1.8-4.2
			c1.2-1.2,2.7-1.8,4.4-1.8c1.7,0,3.2,0.6,4.4,1.8c1.2,1.2,1.8,2.6,1.8,4.2c0,1.7-0.6,3.1-1.8,4.2
			C216.9,117.7,215.4,118.3,213.7,118.3z M213.7,107.3c-1.4,0-2.4,0.5-3.1,1.5c-0.7,1-1,2.2-1,3.5c0,1.3,0.3,2.5,1,3.5
			c0.7,1,1.7,1.5,3.1,1.5c1.4,0,2.4-0.5,3.1-1.5c0.7-1,1-2.2,1-3.5c0-1.3-0.3-2.5-1-3.5C216.1,107.8,215,107.3,213.7,107.3z"/>
		<path style="fill:#F2E5DB;" d="M233.7,118.3c-1.6,0-3-0.6-4.1-1.7c-1.1-1.2-1.7-2.6-1.7-4.3c0-1.6,0.6-3,1.7-4.2
			c1.1-1.2,2.5-1.8,4.1-1.8c0.6,0,1.2,0.2,1.9,0.5c0.6,0.3,1.1,0.7,1.5,1.2c0.1-0.1,0.2-0.2,0.2-0.5c0.1-0.2,0.1-0.5,0.2-0.8h0.5
			v4.4h-0.5c-0.3-1.2-0.7-2.2-1.4-2.9c-0.6-0.7-1.5-1-2.4-1c-1.3,0-2.2,0.5-2.8,1.5c-0.6,1-0.9,2.2-0.9,3.5c0,1.3,0.3,2.5,0.9,3.5
			c0.6,1,1.6,1.5,2.9,1.5c0.7,0,1.5-0.2,2.2-0.6c0.7-0.4,1.1-0.9,1.1-1.6c0-0.5-0.2-0.9-0.6-1.2c-0.4-0.3-0.9-0.4-1.6-0.4V113h5.7
			v0.5c-0.9,0-1.4,0.2-1.7,0.6c-0.2,0.4-0.4,1.2-0.4,2.4v0.8c-0.5,0-1.3,0.2-2.4,0.5C234.9,118.1,234.1,118.3,233.7,118.3z"/>
		<path style="fill:#F2E5DB;" d="M249.4,115.4c-0.1,0.3-0.2,0.6-0.3,0.7c-0.1,0.2-0.1,0.4-0.1,0.5c0,0.3,0.1,0.4,0.4,0.5
			c0.3,0.1,0.7,0.2,1.4,0.2v0.5H246v-0.5c0.8,0,1.3-0.1,1.6-0.4c0.3-0.2,0.6-0.9,1.1-1.9l3.8-8.8h0.4l3.8,8.8c0.4,1,0.8,1.6,1.1,1.8
			c0.3,0.3,0.8,0.4,1.4,0.4v0.5h-5.7v-0.5c0.6,0,1.1-0.1,1.3-0.2c0.3-0.1,0.4-0.3,0.4-0.6c0-0.2-0.1-0.6-0.3-1.2l-0.5-1.2h-4.2
			L249.4,115.4z M252,109.3l-1.7,3.9l3.4,0L252,109.3z"/>
		<path style="fill:#F2E5DB;" d="M265.4,117.3c0.9,0,1.4-0.2,1.7-0.5c0.2-0.4,0.4-1.2,0.4-2.4v-4.1c0-1.3-0.1-2.1-0.4-2.4
			c-0.2-0.3-0.8-0.5-1.7-0.5v-0.5h5.4c2.1,0,3.6,0.5,4.7,1.5c1,1,1.6,2.4,1.6,4c0,1.6-0.5,3-1.6,4c-1,1-2.6,1.6-4.7,1.6h-5.4V117.3z
			 M270.9,107.7h-1.7v7.3c0,0.9,0.1,1.4,0.2,1.6c0.2,0.2,0.6,0.3,1.2,0.3h0.2c1.5,0,2.6-0.5,3.2-1.4c0.6-0.9,0.9-2,0.9-3.3
			c0-1.3-0.3-2.4-0.9-3.3C273.4,108.1,272.4,107.7,270.9,107.7z"/>
		<path style="fill:#F2E5DB;" d="M287.1,115.4c-0.1,0.3-0.2,0.6-0.3,0.7c-0.1,0.2-0.1,0.4-0.1,0.5c0,0.3,0.1,0.4,0.4,0.5
			c0.3,0.1,0.7,0.2,1.4,0.2v0.5h-4.8v-0.5c0.8,0,1.3-0.1,1.6-0.4c0.3-0.2,0.6-0.9,1.1-1.9l3.8-8.8h0.4l3.8,8.8
			c0.4,1,0.8,1.6,1.1,1.8c0.3,0.3,0.8,0.4,1.4,0.4v0.5H291v-0.5c0.6,0,1.1-0.1,1.3-0.2c0.3-0.1,0.4-0.3,0.4-0.6
			c0-0.2-0.1-0.6-0.3-1.2l-0.5-1.2h-4.2L287.1,115.4z M289.7,109.3l-1.7,3.9l3.4,0L289.7,109.3z"/>
	</g>
	<g>
		<g>
			<path style="fill:none;stroke:#F2E5DB;stroke-width:1.2352;stroke-miterlimit:10;" d="M119.3,67.5c1-1,1-2.5,0-3.5L63.5,8.2
				c-1-1-2.5-1-3.5,0L4.2,64c-1,1-1,2.5,0,3.5L60,123.3c1,1,2.5,1,3.5,0L119.3,67.5z"/>
		</g>
		<g>
			<path style="fill:#E7CFBE;" d="M113.2,67.5c1-1,1-2.5,0-3.5L63.5,14.3c-1-1-2.5-1-3.5,0L10.3,64c-1,1-1,2.5,0,3.5L60,117.2
				c1,1,2.5,1,3.5,0L113.2,67.5z"/>
			<path style="fill:none;stroke:#826B54;stroke-width:1.2352;stroke-miterlimit:10;" d="M113.2,67.5c1-1,1-2.5,0-3.5L63.5,14.3
				c-1-1-2.5-1-3.5,0L10.3,64c-1,1-1,2.5,0,3.5L60,117.2c1,1,2.5,1,3.5,0L113.2,67.5z"/>
		</g>
		<g>
			<path style="fill-rule:evenodd;clip-rule:evenodd;fill:#9D8165;" d="M53.7,67c0,0,0-0.8,0-0.8H28.3c0,0,0,0.8,0,0.8
				c0,5.2,5.5,9.4,12.7,9.4C48.2,76.3,53.7,72.2,53.7,67z"/>
			<path style="fill-rule:evenodd;clip-rule:evenodd;fill:#9D8165;" d="M95,66.2H69.6c0,0,0,0.8,0,0.8c0,5.2,5.5,9.4,12.7,9.4
				c7.2,0,12.9-4.6,12.9-9.7C95.2,66.6,95,66.2,95,66.2z"/>
			<path style="fill-rule:evenodd;clip-rule:evenodd;fill:#9D8165;" d="M63.9,87.6c-0.1-0.5-0.3-10.7-0.4-15.5
				c-0.1-5.7-0.3-11.2-0.4-16.9c-0.1-3.1-0.2-6.1-0.4-9.2c1.6-1,2.7-2.2,2.9-4c3.3-2.7,5.5-2.6,8.7-0.6c2.4,1.5,4.5,2.8,6.2,4l0-0.8
				l-8.7,19.8h2.3l7.8-18.5l7.8,18.5H92l-8.7-19.8c0,0,0,0.3,0,0.3c0.2-0.3,0.6-0.5,0.9-0.8c1.1-1,1-2.8-0.1-3.8
				c-1.2-1.1-2.6-1-3.9,0.2c-0.2,0.2-0.7,0.9-0.7,0.9s1.2,0.8,1.5,1c0.4-0.3,0.7-0.9,1.3-0.8c1.1,0.2,0.6,1.3,0.5,1.4
				c-0.6,0.6-1.3,0.4-1.8,0.1c-1-0.5-1.9-1.1-2.8-1.7c-1.1-0.7-2.2-1.5-3.3-2.3c-2.9-1.9-5.9-2-9-0.5c-0.3,0.1-0.5,0.2-0.9,0.4
				c-0.7-1-1.2-1.6-2.2-2c0.1-0.8,0.4-1.9,0.6-2.9c-0.5-1.2-1.8-4.7-1.8-4.7h-0.8c0,0-1.3,3.5-1.8,4.7c0.1,1,0.5,2,0.6,2.8
				c-1,0.4-1.5,1-2.2,2c-0.4-0.2-0.6-0.3-0.9-0.4c-3.1-1.5-6.1-1.3-9,0.5c-1.1,0.7-2.2,1.5-3.3,2.3c-0.9,0.6-1.8,1.2-2.8,1.7
				c-0.6,0.3-1.3,0.5-1.8-0.1c-0.1-0.1-0.6-1.1,0.5-1.4c0.6-0.1,0.9,0.6,1.3,0.8c0.3-0.2,1.5-0.9,1.5-0.9s-0.5-0.7-0.7-0.9
				c-1.3-1.2-2.8-1.2-3.9-0.1c-1.1,1.1-1.2,2.9-0.1,3.9c0.3,0.2,0.7,0.7,0.9,1c0,0,0-0.7,0-0.7l-8.7,19.8h2.3l7.8-18.5l7.8,18.5h2.3
				l-8.7-19.8l0,0.4c1.8-1.2,3.9-2.3,6.2-3.8c3.2-2,5.5-2,8.7,0.7c0.2,1.8,1.3,3,2.9,4c-0.1,3.1-0.3,6.2-0.4,9.3
				c-0.2,5.7-0.3,11.4-0.4,17.1c-0.1,4.9-0.4,14.8-0.4,15.3c-3.9,0.3-10.1,2.4-12.5,8.8c5.2,0,10.6,0,14.7,0h0.8c4.2,0,9.5,0,14.7,0
				C74,90,67.8,87.9,63.9,87.6z"/>
		</g>
	</g>
</g>
</svg>
